<svg id="Layer_1" data-name="Layer 1" xmlns="http://www.w3.org/2000/svg" viewBox="0 0 200 136.74"><defs><style>.cls-1{fill:#fff;}.cls-2{fill:#231f20;}</style></defs><title>cloudy</title><path class="cls-1" d="M105,28.85S102.85,8.49,125.4,3.43a42.19,42.19,0,0,1,21.08.73c9.22,2.7,21.75,9.2,23,24.69,0,0,21.44-2.21,27,18.89a31.93,31.93,0,0,1-2.31,23.06c-3.71,7.07-11.15,14.69-26,14.69H105S57.69,87.26,61.63,51.86C61.63,51.86,63.6,18.23,105,28.85Z"/><path class="cls-2" d="M103.74,87.94c-5.46,0-26.39-.82-37.65-12.94-5.61-6-7.92-13.89-6.88-23.35.08-1.2,1.21-14,11.78-21.68,7.72-5.64,18.32-7,31.55-4.21.42-8.32,5.31-20.88,22.33-24.7a44.61,44.61,0,0,1,22.29.77c14,4.1,22.62,12.77,24.46,24.54,6.15.14,22.32,2.29,27.16,20.76a34.39,34.39,0,0,1-2.51,24.8c-3.83,7.29-11.82,16-28.1,16H105C104.92,87.93,104.47,87.94,103.74,87.94ZM90.18,29.2c-6.55,0-12,1.55-16.28,4.66-9,6.55-9.83,18-9.84,18.15v.12c-.9,8,1,14.59,5.59,19.55C80.88,83.79,104.7,83.07,105,83.06h63.22c11.13,0,19.13-4.51,23.8-13.39a29.63,29.63,0,0,0,2.11-21.31c-4.92-18.78-23.58-17.17-24.37-17.09l-2.47.24L167,29c-1.1-13.82-12.16-19.89-21.24-22.55a39.86,39.86,0,0,0-19.86-.69c-20.21,4.54-18.57,22-18.49,22.79l.38,3.48-3.4-.87A58.14,58.14,0,0,0,90.18,29.2Z"/><path class="cls-1" d="M60.73,58.64S57.81,31.48,87.9,24.72a56.35,56.35,0,0,1,28.13,1c12.3,3.6,29,12.27,30.66,32.94,0,0,28.61-3,36,25.21a42.53,42.53,0,0,1-3.07,30.76c-5,9.44-14.88,19.61-34.63,19.61H60.73S-2.45,136.58,2.81,89.34C2.81,89.34,5.44,44.46,60.73,58.64Z"/><path class="cls-2" d="M59.18,136.74a102.31,102.31,0,0,1-17.61-1.62c-14.31-2.58-25.16-7.76-32.26-15.41C2,111.82-1,101.53.32,89.12c.1-1.41,1.52-18.24,15.42-28.39C26,53.22,40.27,51.45,58.11,55.44c.23-10.83,6.36-28,29.25-33.16a58.92,58.92,0,0,1,29.37,1c18.66,5.45,30,17,32.2,32.77,7.48,0,29.66,2.31,36.16,27.15a45.16,45.16,0,0,1-3.28,32.55c-5,9.56-15.48,21-36.84,21H60.73C60.67,136.72,60.12,136.74,59.18,136.74ZM40.9,58.36c-8.93,0-16.36,2.14-22.21,6.41C6.37,73.77,5.32,89.33,5.31,89.49v.13c-1.22,10.92,1.36,19.9,7.67,26.69,15.26,16.43,47.35,15.42,47.66,15.41H145c15.14,0,26.05-6.15,32.41-18.27a40.27,40.27,0,0,0,2.88-29C173.5,58.69,148,61,147,61.12l-2.55.27-.2-2.56C142.7,40,127.67,31.71,115.33,28.1a53.91,53.91,0,0,0-26.88-.94C61,33.33,63.11,57.36,63.21,58.38l.37,3.56-3.47-.88A78,78,0,0,0,40.9,58.36Z"/></svg>