<svg id="Layer_1" data-name="Layer 1" xmlns="http://www.w3.org/2000/svg" viewBox="0 0 200.31 170.26"><defs><style>.cls-1{fill:#ddd;}.cls-2{fill:#010101;}</style></defs><title>rainy</title><path class="cls-1" d="M65.27,40.7s-3.12-29,29.06-36.28a60.25,60.25,0,0,1,30.08,1c13.16,3.85,31,13.13,32.79,35.23,0,0,30.59-3.15,38.48,27,2.88,11,2.08,22.67-3.29,32.9-4.42,8.42-11.88,15.62-27,19.25a67.76,67.76,0,0,1-15.75,1.72H65.27s-67.57,2.53-61.94-48C3.33,73.54,6.15,25.54,65.27,40.7Z"/><path d="M63.64,124.57a109.9,109.9,0,0,1-18.91-1.74c-15.37-2.77-27-8.35-34.69-16.57-7.91-8.52-11.17-19.61-9.7-33C.45,71.69,2,53.6,17,42.68c11-8,26.19-10,45.18-5.81C62.55,25.17,69.29,7,93.67,1.5a63.27,63.27,0,0,1,31.58,1.09c20,5.84,32.16,18.23,34.62,35,8.35.1,31.78,2.81,38.71,29.28A48.63,48.63,0,0,1,195,102c-5.66,10.79-14.86,17.39-28.95,20.77a70.37,70.37,0,0,1-16.45,1.82H65.32C65.13,124.55,64.55,124.57,63.64,124.57ZM44.06,40.73c-9.44,0-17.31,2.26-23.5,6.76C7.52,57,6.34,73.56,6.33,73.73l0,.15C5,85.46,7.76,95,14.44,102.17c16.22,17.46,50.37,16.4,50.72,16.38h84.48a64.92,64.92,0,0,0,15.05-1.65c16.14-3.87,22-12,25-17.72a42.64,42.64,0,0,0,3-30.75c-7.15-27.32-34.12-24.87-35.26-24.74l-3.06.31-.24-3.06c-1.59-20-17.54-28.76-30.64-32.59A57.29,57.29,0,0,0,95,7.35c-29.09,6.54-26.85,32-26.74,33l.44,4.28-4.17-1.06A82.86,82.86,0,0,0,44.06,40.73Z"/><rect class="cls-2" x="33.39" y="134.46" width="7" height="35.8"/><rect class="cls-2" x="73.21" y="134.46" width="7" height="23.84"/><rect class="cls-2" x="116.34" y="134.46" width="7" height="35.8"/><rect class="cls-2" x="159.47" y="134.46" width="7" height="23.84"/></svg>