<svg id="Layer_1" data-name="Layer 1" xmlns="http://www.w3.org/2000/svg" viewBox="0 0 202.04 190.29"><defs><style>.cls-1{fill:#fff;}</style></defs><title>snowing</title><path class="cls-1" d="M65.83,41S62.68,11.73,95.14,4.43a60.85,60.85,0,0,1,30.35,1.06C138.77,9.37,156.8,18.73,158.57,41c0,0,30.87-3.19,38.82,27.2,2.91,11.11,2.1,22.88-3.31,33.2-4.46,8.49-12,15.76-27.24,19.42A68.49,68.49,0,0,1,151,122.6H65.83S-2.34,125.15,3.34,74.17C3.34,74.17,6.18,25.74,65.83,41Z"/><path d="M64.19,125.62a111.15,111.15,0,0,1-19.09-1.75c-15.5-2.79-27.27-8.42-35-16.71C2.15,98.57-1.14,87.39.35,73.91.46,72.31,2,54.06,17.11,43.05,28.22,35,43.54,33,62.7,37.21,63.09,25.41,69.88,7,94.49,1.51a63.84,63.84,0,0,1,31.84,1.1C146.48,8.51,158.77,21,161.25,38c8.39.09,32.05,2.8,39.05,29.51a49.06,49.06,0,0,1-3.57,35.35c-5.71,10.88-15,17.54-29.19,20.94A71,71,0,0,1,151,125.6H65.88C65.68,125.61,65.1,125.62,64.19,125.62ZM44.43,41c-9.57,0-17.52,2.29-23.78,6.86C7.46,57.53,6.34,74.18,6.33,74.35v.15C5,86.2,7.77,95.81,14.52,103.07c16.37,17.62,50.85,16.55,51.19,16.53H151a65.59,65.59,0,0,0,15.19-1.66c12.4-3,20.43-8.66,25.28-17.89a43.12,43.12,0,0,0,3.07-31C187.3,41.53,160,43.91,158.88,44l-3,.3-.25-3c-1.6-20.19-17.71-29-30.93-32.91a57.91,57.91,0,0,0-28.85-1c-29.37,6.6-27.1,32.28-27,33.36L69.25,45l-4.17-1.06A84,84,0,0,0,44.43,41Z"/><path d="M84.85,183H81.73l2.2-2.21a.94.94,0,1,0-1.33-1.33l-2.21,2.2v-3.11a.95.95,0,1,0-1.89,0v3.12l-2.21-2.21A.94.94,0,1,0,75,180.81l2.2,2.2H74.05a.95.95,0,0,0,0,1.89h3.11L75,187.1a.94.94,0,0,0,.67,1.61.93.93,0,0,0,.66-.27l2.21-2.21v3.12a.95.95,0,0,0,1.89,0v-3.12l2.2,2.2a.94.94,0,0,0,1.34-1.33l-2.21-2.21h3.12a.94.94,0,1,0,0-1.88Z"/><path d="M130.5,183h-3.12l2.21-2.21a.94.94,0,0,0,0-1.33,1,1,0,0,0-1.34,0l-2.2,2.2v-3.11a.95.95,0,1,0-1.89,0v3.12L122,179.47a.94.94,0,0,0-1.33,0,1,1,0,0,0,0,1.34l2.21,2.2h-3.12a.95.95,0,0,0,0,1.89h3.12l-2.21,2.2a.95.95,0,0,0,1.34,1.34l2.2-2.21v3.12a.94.94,0,0,0,1.88,0v-3.12l2.21,2.2a.93.93,0,0,0,1.33,0,.94.94,0,0,0,0-1.33l-2.21-2.21h3.12a.94.94,0,1,0,0-1.88Z"/><path d="M60.14,145.41H57l2.21-2.2a.95.95,0,0,0-1.34-1.34l-2.2,2.21V141a.95.95,0,0,0-1.89,0v3.12l-2.21-2.2a.94.94,0,0,0-1.33,1.33l2.21,2.21H49.35a.94.94,0,0,0,0,1.88h3.12l-2.21,2.21a.94.94,0,0,0,0,1.33.9.9,0,0,0,.66.28.92.92,0,0,0,.67-.28l2.2-2.21v3.13a.94.94,0,1,0,1.88,0v-3.12l2.21,2.21a1,1,0,0,0,1.33,0,1,1,0,0,0,0-1.34L57,147.3h3.12a.95.95,0,1,0,0-1.89Z"/><path d="M106.42,145.41H103.3l2.2-2.2a1,1,0,0,0,0-1.34.94.94,0,0,0-1.33,0L102,144.08V141a.95.95,0,0,0-1.89,0v3.12l-2.21-2.2a.94.94,0,1,0-1.33,1.33l2.2,2.21H95.62a.94.94,0,1,0,0,1.88h3.12l-2.2,2.21a.94.94,0,0,0,0,1.33.92.92,0,0,0,.67.28.9.9,0,0,0,.66-.28l2.21-2.21v3.13a.95.95,0,0,0,1.89,0v-3.12l2.2,2.21a1,1,0,0,0,1.34,0,1,1,0,0,0,0-1.34l-2.21-2.2h3.12a.95.95,0,0,0,0-1.89Z"/><path d="M152.7,145.41h-3.12l2.2-2.2a1,1,0,0,0,0-1.34.94.94,0,0,0-1.33,0l-2.21,2.21V141a.95.95,0,0,0-1.89,0v3.12l-2.21-2.2a.94.94,0,1,0-1.33,1.33l2.2,2.21H141.9a.94.94,0,0,0,0,1.88H145l-2.2,2.21a.94.94,0,0,0,0,1.33.92.92,0,0,0,.67.28.9.9,0,0,0,.66-.28l2.21-2.21v3.13a.95.95,0,0,0,1.89,0v-3.12l2.2,2.21a1,1,0,0,0,1.34,0,1,1,0,0,0,0-1.34l-2.21-2.2h3.12a.95.95,0,0,0,0-1.89Z"/></svg>