<svg id="Layer_1" data-name="Layer 1" xmlns="http://www.w3.org/2000/svg" viewBox="0 0 200.31 199.94"><defs><style>.cls-1{fill:#ddd;}.cls-2{fill:#010101;}</style></defs><title>thunderstorm</title><path class="cls-1" d="M65.27,40.7s-3.12-29,29.06-36.28a60.26,60.26,0,0,1,30.08,1c13.16,3.85,31,13.13,32.79,35.23,0,0,30.59-3.15,38.48,27,2.88,11,2.08,22.67-3.29,32.9-4.42,8.42-11.88,15.62-27,19.25a67.76,67.76,0,0,1-15.75,1.72H65.27s-67.57,2.53-61.94-48C3.33,73.54,6.15,25.54,65.27,40.7Z"/><path d="M63.65,124.57a109.92,109.92,0,0,1-18.92-1.74c-15.37-2.77-27-8.35-34.69-16.58-7.91-8.51-11.17-19.6-9.7-33C.45,71.69,2,53.6,17,42.68c11-8,26.19-10,45.18-5.81C62.55,25.17,69.28,7,93.67,1.5a63.27,63.27,0,0,1,31.58,1.09c20,5.84,32.16,18.23,34.62,35,8.35.1,31.78,2.81,38.71,29.28A48.68,48.68,0,0,1,195,102c-5.66,10.79-14.86,17.39-28.95,20.77a69.73,69.73,0,0,1-16.45,1.81H65.32C65.13,124.55,64.55,124.57,63.65,124.57ZM44.06,40.73c-9.44,0-17.31,2.26-23.5,6.76C7.53,57,6.34,73.56,6.33,73.73v.15C5,85.46,7.76,95,14.44,102.17c16.22,17.46,50.38,16.4,50.72,16.38h84.48a63.81,63.81,0,0,0,15.05-1.64c16.14-3.87,22-12,25-17.72a42.69,42.69,0,0,0,3-30.75c-7.12-27.21-34.12-24.86-35.27-24.74l-3,.3-.25-3.05c-1.59-20-17.54-28.76-30.64-32.59A57.29,57.29,0,0,0,95,7.35c-29.09,6.54-26.85,32-26.74,33l.44,4.28-4.16-1.06A83,83,0,0,0,44.06,40.73Z"/><rect class="cls-2" x="24.7" y="134.46" width="7" height="35.8"/><rect class="cls-2" x="174.77" y="134.46" width="7" height="35.8"/><polygon points="104.95 133.47 83.14 174.76 97.98 174.76 94.13 199.94 117.17 163.91 101.26 163.91 104.95 133.47"/><rect class="cls-2" x="138.21" y="134.46" width="7" height="23.84"/><rect class="cls-2" x="56.94" y="134.46" width="7" height="23.84"/></svg>